<svg width="78" height="28" viewBox="0 0 78 28" fill="none" xmlns="http://www.w3.org/2000/svg">
<path d="M0.226536 0.527108H15.2885V4.48177H4.62378V9.00751H12.9471V12.9622H4.62378V21H0.226536V0.527108ZM20.8365 6.66612V21H16.8818V6.66612H20.8365ZM20.4938 0.983965C20.9126 1.38371 21.122 1.91671 21.122 2.58296C21.122 3.23969 20.9126 3.76794 20.4938 4.16768C20.0751 4.56743 19.504 4.76731 18.7806 4.76731C18.1144 4.76731 17.5814 4.56743 17.1816 4.16768C16.7914 3.76794 16.5963 3.23969 16.5963 2.58296C16.5963 1.91671 16.7962 1.38371 17.1959 0.983965C17.5957 0.584215 18.1239 0.38434 18.7806 0.38434C19.504 0.38434 20.0751 0.584215 20.4938 0.983965ZM28.8829 16.4743L25.8134 21H21.5732L26.3987 13.6903L21.8587 6.66612H26.2559L28.8829 10.9063L31.5098 6.66612H35.907L31.367 13.6903L36.1926 21H31.9524L28.8829 16.4743ZM44.9528 21.2855C44.1343 21.2855 43.3681 21.119 42.6543 20.7858C41.9499 20.4432 41.4502 20.1053 41.1552 19.7722L40.7126 19.244V27.139H36.7722V6.66612H40.7126V8.42216C40.7507 8.36506 40.8078 8.29367 40.8839 8.20801C40.9696 8.12235 41.1409 7.96531 41.3979 7.73688C41.6644 7.49893 41.9499 7.28954 42.2545 7.1087C42.5591 6.91834 42.9541 6.75178 43.4395 6.60901C43.9249 6.45673 44.4293 6.38058 44.9528 6.38058C46.8088 6.38058 48.4173 7.10394 49.7784 8.55065C51.1489 9.98785 51.8342 11.7487 51.8342 13.8331C51.8342 15.9175 51.1489 17.683 49.7784 19.1297C48.4173 20.5669 46.8088 21.2855 44.9528 21.2855ZM46.7089 11.0063C46.0331 10.2639 45.205 9.89267 44.2247 9.89267C43.2539 9.89267 42.4258 10.2639 41.7405 11.0063C41.0553 11.7391 40.7126 12.6814 40.7126 13.8331C40.7126 14.9847 41.0553 15.9317 41.7405 16.6741C42.4258 17.4165 43.2539 17.7877 44.2247 17.7877C45.205 17.7877 46.0331 17.4165 46.7089 16.6741C47.3941 15.9317 47.7368 14.9847 47.7368 13.8331C47.7368 12.6814 47.3941 11.7391 46.7089 11.0063ZM66.8905 15.1465H56.5113C56.6636 15.927 57.0776 16.5885 57.7534 17.131C58.4291 17.664 59.281 17.9305 60.3089 17.9305C61.0513 17.9305 61.7366 17.7877 62.3648 17.5022C63.0025 17.2071 63.4498 16.9121 63.7068 16.617L64.1208 16.1745L66.1624 18.8014L65.9054 19.0584C65.7817 19.1821 65.5247 19.3867 65.1345 19.6723C64.7442 19.9578 64.3302 20.2148 63.8924 20.4432C63.4546 20.6621 62.8835 20.8572 62.1792 21.0286C61.4844 21.1999 60.7658 21.2855 60.0234 21.2855C57.9199 21.2855 56.1258 20.5574 54.641 19.1012C53.1562 17.6354 52.4139 15.8794 52.4139 13.8331C52.4139 11.7867 53.1467 10.0354 54.6125 8.57921C56.0782 7.11346 57.8343 6.38058 59.8806 6.38058C61.9269 6.38058 63.6306 7.06587 64.9917 8.43644C66.3527 9.79749 67.0333 11.5012 67.0333 13.5475L66.8905 15.1465ZM61.9936 10.4923C61.4225 9.99737 60.7182 9.7499 59.8806 9.7499C59.043 9.7499 58.3292 9.99261 57.7391 10.478C57.1585 10.9634 56.7492 11.5964 56.5113 12.3768H63.0929C62.9406 11.6154 62.5742 10.9872 61.9936 10.4923ZM77.1355 6.52335V10.478C76.8405 10.3828 76.4026 10.3305 75.822 10.321C74.7846 10.321 73.9613 10.6493 73.3522 11.3061C72.7525 11.9628 72.4527 12.9051 72.4527 14.1329V21H68.5123V6.66612H72.4527V8.42216C72.5669 8.28891 72.7287 8.11759 72.9381 7.9082C73.1475 7.68929 73.6044 7.40375 74.3087 7.05159C75.0225 6.69943 75.7697 6.52335 76.5502 6.52335H77.1355Z" fill="white"/>
</svg>
