<svg width="512" height="512" viewBox="0 0 512 512" fill="none" xmlns="http://www.w3.org/2000/svg">
<path d="M288 16L0 304L176 480L464 192V16H288ZM368 144C361.671 144 355.484 142.123 350.222 138.607C344.959 135.091 340.858 130.093 338.436 124.246C336.014 118.399 335.38 111.965 336.615 105.757C337.85 99.5497 340.897 93.8479 345.373 89.3726C349.848 84.8973 355.55 81.8496 361.757 80.6149C367.965 79.3801 374.399 80.0138 380.246 82.4359C386.093 84.8579 391.091 88.9594 394.607 94.2218C398.123 99.4841 400 105.671 400 112C400 120.487 396.629 128.626 390.627 134.627C384.626 140.629 376.487 144 368 144Z" fill="#1AA090"/>
<path d="M480 64V208L216.9 471.1L242 496L512 224V64H480Z" fill="#1AA090"/>
</svg>
