<svg width="33" height="33" viewBox="0 0 33 33" fill="none" xmlns="http://www.w3.org/2000/svg">
<path d="M27.6994 11.3712L29.8485 9.22208L27.9043 7.27783L25.5558 9.62496C24.112 8.75871 22.429 8.24996 20.625 8.24996C15.3189 8.24996 11 12.5675 11 17.875C11 23.1825 15.3189 27.5 20.625 27.5C25.9311 27.5 30.25 23.1825 30.25 17.875C30.2489 15.4632 29.3381 13.1407 27.6994 11.3712ZM20.625 24.75C16.8341 24.75 13.75 21.6658 13.75 17.875C13.75 14.0841 16.8341 11 20.625 11C24.4159 11 27.5 14.0841 27.5 17.875C27.5 21.6658 24.4159 24.75 20.625 24.75Z" fill="var(--accent-color)"/>
<path d="M19.25 13.75H22V19.25H19.25V13.75ZM17.875 4.125H23.375V6.875H17.875V4.125ZM4.125 11H9.625V13.75H4.125V11ZM4.125 22H9.625V24.75H4.125V22ZM2.75 16.5H8.23625V19.25H2.75V16.5Z" fill="var(--accent-color)"/>
</svg>
